<svg width="198" height="225" viewBox="0 0 198 225" fill="none" xmlns="http://www.w3.org/2000/svg">
<path d="M10.4519 204.985C8.58195 204.985 6.78987 204.74 5.07571 204.25C3.36154 203.738 1.98131 203.081 0.934998 202.28L2.7716 198.206C3.77339 198.918 4.95326 199.508 6.31124 199.976C7.69147 200.421 9.08284 200.644 10.4853 200.644C11.5539 200.644 12.411 200.543 13.0566 200.343C13.7244 200.12 14.2142 199.82 14.5259 199.441C14.8375 199.063 14.9934 198.629 14.9934 198.139C14.9934 197.516 14.7485 197.026 14.2587 196.67C13.769 196.291 13.1234 195.991 12.3219 195.768C11.5205 195.523 10.63 195.301 9.65052 195.1C8.69326 194.878 7.72487 194.611 6.74534 194.299C5.78808 193.987 4.90874 193.587 4.10731 193.097C3.30589 192.607 2.64916 191.961 2.13714 191.16C1.64738 190.359 1.4025 189.335 1.4025 188.088C1.4025 186.752 1.75869 185.539 2.47107 184.448C3.20571 183.335 4.29654 182.456 5.74356 181.81C7.21284 181.142 9.04945 180.808 11.2534 180.808C12.7227 180.808 14.1697 180.986 15.5944 181.343C17.0192 181.677 18.277 182.189 19.3678 182.879L17.6982 186.986C16.6074 186.363 15.5165 185.906 14.4257 185.617C13.3349 185.305 12.2663 185.149 11.22 185.149C10.1737 185.149 9.31659 185.272 8.64873 185.517C7.98088 185.762 7.50225 186.084 7.21284 186.485C6.92344 186.864 6.77874 187.309 6.77874 187.821C6.77874 188.422 7.02362 188.912 7.51338 189.29C8.00314 189.646 8.64873 189.936 9.45016 190.158C10.2516 190.381 11.1309 190.604 12.0882 190.826C13.0677 191.049 14.0361 191.305 14.9934 191.594C15.9729 191.884 16.8634 192.273 17.6648 192.763C18.4662 193.253 19.1118 193.898 19.6016 194.7C20.1136 195.501 20.3696 196.514 20.3696 197.738C20.3696 199.052 20.0023 200.254 19.2676 201.345C18.533 202.436 17.431 203.315 15.9618 203.983C14.5147 204.651 12.6781 204.985 10.4519 204.985ZM40.0946 181.209H45.5042V204.584H40.0946V181.209ZM29.4757 204.584H24.066V181.209H29.4757V204.584ZM40.4953 195H29.075V190.425H40.4953V195ZM51.0346 204.584V181.209H56.4443V204.584H51.0346ZM67.5038 204.584L59.8568 181.209H65.4668L72.112 201.913H69.307L76.2527 181.209H81.2616L87.9402 201.913H85.2354L92.0475 181.209H97.2234L89.5764 204.584H83.7661L77.8556 186.418H79.3916L73.3141 204.584H67.5038ZM96.3886 204.584L106.807 181.209H112.15L122.602 204.584H116.925L108.377 183.947H110.514L101.932 204.584H96.3886ZM101.598 199.575L103.034 195.468H115.055L116.524 199.575H101.598ZM125.027 204.584V181.209H129.502L143.293 198.039H141.122V181.209H146.465V204.584H142.024L128.199 187.754H130.37V204.584H125.027ZM159.676 204.985C157.806 204.985 156.014 204.74 154.3 204.25C152.586 203.738 151.205 203.081 150.159 202.28L151.996 198.206C152.997 198.918 154.177 199.508 155.535 199.976C156.916 200.421 158.307 200.644 159.709 200.644C160.778 200.644 161.635 200.543 162.281 200.343C162.949 200.12 163.438 199.82 163.75 199.441C164.062 199.063 164.217 198.629 164.217 198.139C164.217 197.516 163.973 197.026 163.483 196.67C162.993 196.291 162.347 195.991 161.546 195.768C160.745 195.523 159.854 195.301 158.875 195.1C157.917 194.878 156.949 194.611 155.969 194.299C155.012 193.987 154.133 193.587 153.331 193.097C152.53 192.607 151.873 191.961 151.361 191.16C150.871 190.359 150.627 189.335 150.627 188.088C150.627 186.752 150.983 185.539 151.695 184.448C152.43 183.335 153.521 182.456 154.968 181.81C156.437 181.142 158.274 180.808 160.477 180.808C161.947 180.808 163.394 180.986 164.818 181.343C166.243 181.677 167.501 182.189 168.592 182.879L166.922 186.986C165.831 186.363 164.741 185.906 163.65 185.617C162.559 185.305 161.49 185.149 160.444 185.149C159.398 185.149 158.541 185.272 157.873 185.517C157.205 185.762 156.726 186.084 156.437 186.485C156.147 186.864 156.003 187.309 156.003 187.821C156.003 188.422 156.248 188.912 156.737 189.29C157.227 189.646 157.873 189.936 158.674 190.158C159.476 190.381 160.355 190.604 161.312 190.826C162.292 191.049 163.26 191.305 164.217 191.594C165.197 191.884 166.087 192.273 166.889 192.763C167.69 193.253 168.336 193.898 168.826 194.7C169.338 195.501 169.594 196.514 169.594 197.738C169.594 199.052 169.226 200.254 168.492 201.345C167.757 202.436 166.655 203.315 165.186 203.983C163.739 204.651 161.902 204.985 159.676 204.985ZM189.319 181.209H194.728V204.584H189.319V181.209ZM178.7 204.584H173.29V181.209H178.7V204.584ZM189.719 195H178.299V190.425H189.719V195Z" fill="#3A3F4F"/>
<path d="M43.2479 221.45C42.1621 221.45 41.3132 221.148 40.701 220.543C40.0889 219.938 39.7828 219.075 39.7828 217.953V213.668H41.5537V217.887C41.5537 218.616 41.703 219.14 42.0018 219.461C42.3006 219.782 42.7196 219.942 43.2589 219.942C43.7981 219.942 44.2172 219.782 44.5159 219.461C44.8147 219.14 44.9641 218.616 44.9641 217.887V213.668H46.713V217.953C46.713 219.075 46.407 219.938 45.7948 220.543C45.1827 221.148 44.3337 221.45 43.2479 221.45ZM51.9171 215.351C52.3835 215.351 52.7989 215.446 53.1632 215.635C53.5349 215.817 53.8264 216.102 54.0377 216.488C54.249 216.867 54.3547 217.355 54.3547 217.953V221.319H52.6495V218.215C52.6495 217.741 52.5438 217.391 52.3325 217.166C52.1284 216.94 51.8369 216.827 51.458 216.827C51.1884 216.827 50.9443 216.885 50.7256 217.002C50.5143 217.111 50.3467 217.282 50.2228 217.515C50.1062 217.749 50.0479 218.047 50.0479 218.412V221.319H48.3427V215.438H49.9714V217.067L49.6653 216.575C49.8767 216.182 50.1791 215.879 50.5726 215.668C50.9661 215.457 51.4143 215.351 51.9171 215.351ZM55.9004 221.319V213.209H57.6056V221.319H55.9004ZM62.1068 221.407C61.4363 221.407 60.8461 221.276 60.336 221.013C59.8331 220.751 59.4433 220.394 59.1664 219.942C58.8894 219.483 58.751 218.962 58.751 218.379C58.751 217.789 58.8858 217.268 59.1554 216.816C59.4323 216.357 59.8076 216 60.2813 215.745C60.755 215.482 61.2906 215.351 61.8881 215.351C62.4638 215.351 62.9812 215.475 63.4403 215.723C63.9067 215.963 64.2747 216.313 64.5444 216.772C64.814 217.224 64.9488 217.767 64.9488 218.401C64.9488 218.466 64.9452 218.543 64.9379 218.63C64.9306 218.71 64.9233 218.787 64.916 218.86H60.1392V217.865H64.0197L63.3638 218.16C63.3638 217.854 63.3019 217.588 63.178 217.362C63.0541 217.136 62.8829 216.962 62.6642 216.838C62.4456 216.706 62.1906 216.641 61.8991 216.641C61.6076 216.641 61.3489 216.706 61.123 216.838C60.9044 216.962 60.7331 217.14 60.6092 217.373C60.4853 217.599 60.4234 217.869 60.4234 218.182V218.444C60.4234 218.765 60.4926 219.049 60.6311 219.297C60.7768 219.538 60.9772 219.723 61.2323 219.855C61.4946 219.978 61.8007 220.04 62.1505 220.04C62.4638 220.04 62.7371 219.993 62.9703 219.898C63.2108 219.804 63.4294 219.661 63.6262 219.472L64.5334 220.456C64.2638 220.762 63.9249 220.999 63.5169 221.166C63.1088 221.327 62.6387 221.407 62.1068 221.407ZM69.5312 221.319V220.172L69.4219 219.92V217.865C69.4219 217.501 69.3089 217.217 69.083 217.013C68.8644 216.808 68.5255 216.706 68.0664 216.706C67.7531 216.706 67.4434 216.757 67.1373 216.86C66.8385 216.954 66.5835 217.085 66.3721 217.253L65.76 216.062C66.0806 215.836 66.4669 215.661 66.9187 215.537C67.3705 215.413 67.8296 215.351 68.296 215.351C69.1923 215.351 69.8882 215.562 70.3838 215.985C70.8793 216.408 71.1271 217.067 71.1271 217.964V221.319H69.5312ZM67.7385 221.407C67.2794 221.407 66.8859 221.33 66.558 221.177C66.23 221.017 65.9786 220.802 65.8037 220.532C65.6288 220.263 65.5414 219.96 65.5414 219.625C65.5414 219.275 65.6252 218.969 65.7928 218.707C65.9677 218.444 66.241 218.24 66.6126 218.095C66.9843 217.942 67.4689 217.865 68.0664 217.865H69.6295V218.86H68.2523C67.8514 218.86 67.5745 218.925 67.4215 219.057C67.2758 219.188 67.2029 219.352 67.2029 219.549C67.2029 219.767 67.2867 219.942 67.4543 220.073C67.6292 220.197 67.866 220.259 68.1648 220.259C68.449 220.259 68.7041 220.193 68.93 220.062C69.1559 219.924 69.3198 219.723 69.4219 219.461L69.6842 220.248C69.5603 220.627 69.3344 220.915 69.0065 221.112C68.6786 221.308 68.2559 221.407 67.7385 221.407ZM74.6489 221.407C74.1461 221.407 73.6615 221.348 73.1951 221.232C72.736 221.108 72.3716 220.955 72.102 220.773L72.6704 219.549C72.94 219.716 73.257 219.855 73.6214 219.964C73.993 220.066 74.3574 220.117 74.7145 220.117C75.108 220.117 75.3849 220.07 75.5452 219.975C75.7128 219.88 75.7966 219.749 75.7966 219.581C75.7966 219.443 75.731 219.341 75.5999 219.275C75.476 219.202 75.3084 219.148 75.0971 219.111C74.8857 219.075 74.6525 219.038 74.3975 219.002C74.1497 218.966 73.8983 218.918 73.6432 218.86C73.3882 218.794 73.155 218.7 72.9437 218.576C72.7323 218.452 72.5611 218.284 72.4299 218.073C72.306 217.862 72.2441 217.588 72.2441 217.253C72.2441 216.881 72.3498 216.553 72.5611 216.269C72.7797 215.985 73.0931 215.763 73.5011 215.602C73.9092 215.435 74.3975 215.351 74.9659 215.351C75.3667 215.351 75.7748 215.395 76.1901 215.482C76.6055 215.57 76.9517 215.697 77.2286 215.865L76.6602 217.078C76.376 216.911 76.0881 216.798 75.7966 216.739C75.5124 216.674 75.2355 216.641 74.9659 216.641C74.5869 216.641 74.31 216.692 74.1351 216.794C73.9602 216.896 73.8728 217.027 73.8728 217.187C73.8728 217.333 73.9347 217.442 74.0586 217.515C74.1898 217.588 74.361 217.647 74.5724 217.69C74.7837 217.734 75.0133 217.774 75.261 217.81C75.5161 217.84 75.7711 217.887 76.0262 217.953C76.2812 218.018 76.5108 218.113 76.7148 218.237C76.9262 218.353 77.0974 218.517 77.2286 218.729C77.3598 218.933 77.4253 219.202 77.4253 219.538C77.4253 219.902 77.316 220.226 77.0974 220.51C76.8788 220.787 76.5618 221.006 76.1464 221.166C75.7383 221.327 75.2392 221.407 74.6489 221.407ZM82.0519 215.351C82.5182 215.351 82.9336 215.446 83.298 215.635C83.6696 215.817 83.9611 216.102 84.1724 216.488C84.3838 216.867 84.4894 217.355 84.4894 217.953V221.319H82.7842V218.215C82.7842 217.741 82.6786 217.391 82.4672 217.166C82.2632 216.94 81.9717 216.827 81.5928 216.827C81.3231 216.827 81.079 216.885 80.8604 217.002C80.649 217.111 80.4814 217.282 80.3576 217.515C80.241 217.749 80.1827 218.047 80.1827 218.412V221.319H78.4774V213.209H80.1827V217.067L79.8001 216.575C80.0114 216.182 80.3138 215.879 80.7073 215.668C81.1009 215.457 81.549 215.351 82.0519 215.351ZM91.153 221.319V218.193L91.5575 219.264L88.1908 213.668H90.0709L92.6506 217.964H91.5684L94.159 213.668H95.8971L92.5303 219.264L92.9238 218.193V221.319H91.153ZM98.6649 221.407C98.0382 221.407 97.4807 221.276 96.9925 221.013C96.5115 220.751 96.1289 220.394 95.8447 219.942C95.5678 219.483 95.4293 218.962 95.4293 218.379C95.4293 217.789 95.5678 217.268 95.8447 216.816C96.1289 216.357 96.5115 216 96.9925 215.745C97.4807 215.482 98.0382 215.351 98.6649 215.351C99.2843 215.351 99.8381 215.482 100.326 215.745C100.815 216 101.197 216.353 101.474 216.805C101.751 217.257 101.89 217.781 101.89 218.379C101.89 218.962 101.751 219.483 101.474 219.942C101.197 220.394 100.815 220.751 100.326 221.013C99.8381 221.276 99.2843 221.407 98.6649 221.407ZM98.6649 220.008C98.9491 220.008 99.2041 219.942 99.43 219.811C99.656 219.68 99.8345 219.494 99.9657 219.253C100.097 219.006 100.162 218.714 100.162 218.379C100.162 218.036 100.097 217.745 99.9657 217.504C99.8345 217.264 99.656 217.078 99.43 216.947C99.2041 216.816 98.9491 216.75 98.6649 216.75C98.3807 216.75 98.1256 216.816 97.8997 216.947C97.6738 217.078 97.4916 217.264 97.3532 217.504C97.222 217.745 97.1564 218.036 97.1564 218.379C97.1564 218.714 97.222 219.006 97.3532 219.253C97.4916 219.494 97.6738 219.68 97.8997 219.811C98.1256 219.942 98.3807 220.008 98.6649 220.008ZM105.511 221.407C105.022 221.407 104.585 221.312 104.199 221.123C103.82 220.933 103.525 220.645 103.314 220.259C103.102 219.866 102.997 219.366 102.997 218.761V215.438H104.702V218.51C104.702 218.998 104.804 219.359 105.008 219.592C105.219 219.818 105.514 219.931 105.893 219.931C106.156 219.931 106.389 219.876 106.593 219.767C106.797 219.651 106.957 219.476 107.074 219.242C107.19 219.002 107.249 218.703 107.249 218.346V215.438H108.954V221.319H107.336V219.702L107.631 220.172C107.434 220.58 107.143 220.889 106.757 221.101C106.378 221.305 105.962 221.407 105.511 221.407ZM110.534 221.319V215.438H112.162V217.1L111.933 216.619C112.108 216.204 112.388 215.89 112.774 215.679C113.161 215.46 113.631 215.351 114.185 215.351V216.925C114.112 216.918 114.046 216.914 113.988 216.914C113.93 216.907 113.868 216.903 113.802 216.903C113.336 216.903 112.957 217.038 112.665 217.308C112.381 217.57 112.239 217.982 112.239 218.543V221.319H110.534ZM118.457 221.319V213.668H121.769C122.454 213.668 123.044 213.781 123.54 214.007C124.036 214.225 124.418 214.542 124.688 214.958C124.957 215.373 125.092 215.868 125.092 216.444C125.092 217.013 124.957 217.504 124.688 217.92C124.418 218.335 124.036 218.656 123.54 218.882C123.044 219.1 122.454 219.21 121.769 219.21H119.441L120.228 218.412V221.319H118.457ZM120.228 218.608L119.441 217.767H121.671C122.217 217.767 122.625 217.65 122.895 217.417C123.165 217.184 123.299 216.86 123.299 216.444C123.299 216.021 123.165 215.694 122.895 215.46C122.625 215.227 122.217 215.111 121.671 215.111H119.441L120.228 214.269V218.608ZM129.024 221.407C128.397 221.407 127.84 221.276 127.351 221.013C126.87 220.751 126.488 220.394 126.204 219.942C125.927 219.483 125.788 218.962 125.788 218.379C125.788 217.789 125.927 217.268 126.204 216.816C126.488 216.357 126.87 216 127.351 215.745C127.84 215.482 128.397 215.351 129.024 215.351C129.643 215.351 130.197 215.482 130.685 215.745C131.174 216 131.556 216.353 131.833 216.805C132.11 217.257 132.248 217.781 132.248 218.379C132.248 218.962 132.11 219.483 131.833 219.942C131.556 220.394 131.174 220.751 130.685 221.013C130.197 221.276 129.643 221.407 129.024 221.407ZM129.024 220.008C129.308 220.008 129.563 219.942 129.789 219.811C130.015 219.68 130.193 219.494 130.325 219.253C130.456 219.006 130.521 218.714 130.521 218.379C130.521 218.036 130.456 217.745 130.325 217.504C130.193 217.264 130.015 217.078 129.789 216.947C129.563 216.816 129.308 216.75 129.024 216.75C128.74 216.75 128.485 216.816 128.259 216.947C128.033 217.078 127.851 217.264 127.712 217.504C127.581 217.745 127.515 218.036 127.515 218.379C127.515 218.714 127.581 219.006 127.712 219.253C127.851 219.494 128.033 219.68 128.259 219.811C128.485 219.942 128.74 220.008 129.024 220.008ZM135.793 221.407C135.101 221.407 134.561 221.232 134.175 220.882C133.789 220.525 133.596 219.997 133.596 219.297V214.138H135.301V219.275C135.301 219.523 135.367 219.716 135.498 219.855C135.629 219.986 135.808 220.051 136.034 220.051C136.303 220.051 136.533 219.978 136.722 219.833L137.181 221.035C137.006 221.159 136.795 221.254 136.547 221.319C136.307 221.378 136.055 221.407 135.793 221.407ZM132.689 216.881V215.57H136.766V216.881H132.689ZM140.876 221.407C140.205 221.407 139.615 221.276 139.105 221.013C138.602 220.751 138.212 220.394 137.935 219.942C137.658 219.483 137.52 218.962 137.52 218.379C137.52 217.789 137.655 217.268 137.924 216.816C138.201 216.357 138.576 216 139.05 215.745C139.524 215.482 140.059 215.351 140.657 215.351C141.233 215.351 141.75 215.475 142.209 215.723C142.676 215.963 143.044 216.313 143.313 216.772C143.583 217.224 143.718 217.767 143.718 218.401C143.718 218.466 143.714 218.543 143.707 218.63C143.699 218.71 143.692 218.787 143.685 218.86H138.908V217.865H142.788L142.133 218.16C142.133 217.854 142.071 217.588 141.947 217.362C141.823 217.136 141.652 216.962 141.433 216.838C141.214 216.706 140.959 216.641 140.668 216.641C140.376 216.641 140.118 216.706 139.892 216.838C139.673 216.962 139.502 217.14 139.378 217.373C139.254 217.599 139.192 217.869 139.192 218.182V218.444C139.192 218.765 139.261 219.049 139.4 219.297C139.546 219.538 139.746 219.723 140.001 219.855C140.263 219.978 140.569 220.04 140.919 220.04C141.233 220.04 141.506 219.993 141.739 219.898C141.98 219.804 142.198 219.661 142.395 219.472L143.302 220.456C143.033 220.762 142.694 220.999 142.286 221.166C141.878 221.327 141.408 221.407 140.876 221.407ZM148.427 215.351C148.894 215.351 149.309 215.446 149.673 215.635C150.045 215.817 150.337 216.102 150.548 216.488C150.759 216.867 150.865 217.355 150.865 217.953V221.319H149.16V218.215C149.16 217.741 149.054 217.391 148.843 217.166C148.639 216.94 148.347 216.827 147.968 216.827C147.699 216.827 147.454 216.885 147.236 217.002C147.024 217.111 146.857 217.282 146.733 217.515C146.616 217.749 146.558 218.047 146.558 218.412V221.319H144.853V215.438H146.482V217.067L146.176 216.575C146.387 216.182 146.689 215.879 147.083 215.668C147.476 215.457 147.924 215.351 148.427 215.351ZM154.815 221.407C154.123 221.407 153.584 221.232 153.198 220.882C152.811 220.525 152.618 219.997 152.618 219.297V214.138H154.323V219.275C154.323 219.523 154.389 219.716 154.52 219.855C154.651 219.986 154.83 220.051 155.056 220.051C155.325 220.051 155.555 219.978 155.745 219.833L156.204 221.035C156.029 221.159 155.817 221.254 155.57 221.319C155.329 221.378 155.078 221.407 154.815 221.407ZM151.711 216.881V215.57H155.788V216.881H151.711ZM157.161 221.319V215.438H158.866V221.319H157.161ZM158.013 214.619C157.7 214.619 157.445 214.528 157.248 214.345C157.052 214.163 156.953 213.937 156.953 213.668C156.953 213.398 157.052 213.172 157.248 212.99C157.445 212.808 157.7 212.717 158.013 212.717C158.327 212.717 158.582 212.804 158.779 212.979C158.975 213.147 159.074 213.365 159.074 213.635C159.074 213.919 158.975 214.156 158.779 214.345C158.589 214.528 158.334 214.619 158.013 214.619ZM164.056 221.319V220.172L163.947 219.92V217.865C163.947 217.501 163.834 217.217 163.608 217.013C163.389 216.808 163.05 216.706 162.591 216.706C162.278 216.706 161.968 216.757 161.662 216.86C161.363 216.954 161.108 217.085 160.897 217.253L160.285 216.062C160.605 215.836 160.992 215.661 161.443 215.537C161.895 215.413 162.354 215.351 162.821 215.351C163.717 215.351 164.413 215.562 164.908 215.985C165.404 216.408 165.652 217.067 165.652 217.964V221.319H164.056ZM162.263 221.407C161.804 221.407 161.411 221.33 161.083 221.177C160.755 221.017 160.503 220.802 160.328 220.532C160.154 220.263 160.066 219.96 160.066 219.625C160.066 219.275 160.15 218.969 160.317 218.707C160.492 218.444 160.766 218.24 161.137 218.095C161.509 217.942 161.994 217.865 162.591 217.865H164.154V218.86H162.777C162.376 218.86 162.099 218.925 161.946 219.057C161.8 219.188 161.728 219.352 161.728 219.549C161.728 219.767 161.811 219.942 161.979 220.073C162.154 220.197 162.391 220.259 162.689 220.259C162.974 220.259 163.229 220.193 163.455 220.062C163.681 219.924 163.845 219.723 163.947 219.461L164.209 220.248C164.085 220.627 163.859 220.915 163.531 221.112C163.203 221.308 162.781 221.407 162.263 221.407ZM167.195 221.319V213.209H168.9V221.319H167.195Z" fill="#3A3F4F"/>
<path d="M50.0213 88.32C49.9827 88.3267 49.9427 88.336 49.9014 88.3427C49.9427 88.336 49.9827 88.328 50.0213 88.32ZM50.808 88.22C50.7547 88.224 50.704 88.232 50.6507 88.2373C50.704 88.232 50.7547 88.2253 50.808 88.22ZM102.907 108.193L102.911 108.191L102.905 108.193H102.907ZM139.404 110.779L124.044 116.987L105.563 124.452C105.557 124.455 105.549 124.457 105.541 124.461L105.444 124.5C105.395 124.52 105.343 124.533 105.293 124.552C105.148 124.607 105 124.66 104.851 124.705C104.767 124.732 104.681 124.751 104.596 124.772C104.468 124.805 104.341 124.839 104.213 124.864C104.113 124.883 104.012 124.897 103.913 124.912C103.796 124.931 103.68 124.947 103.563 124.959C103.455 124.969 103.348 124.975 103.24 124.98C103.129 124.985 103.019 124.991 102.907 124.991H102.904C102.717 124.991 102.528 124.981 102.34 124.965C102.309 124.963 102.281 124.963 102.252 124.959C102.088 124.944 101.924 124.917 101.759 124.889C101.705 124.881 101.652 124.873 101.6 124.864C101.576 124.859 101.553 124.852 101.531 124.847C101.407 124.821 101.283 124.791 101.16 124.757C101.093 124.741 101.028 124.725 100.961 124.705C100.812 124.66 100.665 124.607 100.519 124.552C100.469 124.533 100.417 124.52 100.369 124.5L49.2507 103.848C45.7907 102.449 43.916 98.5427 45.252 95.056C46.6107 91.5053 50.612 89.7747 54.1213 91.192L99.5547 109.548L100.315 109.856C101.977 110.527 103.836 110.527 105.497 109.856L146.568 93.2613L155.127 89.8027C156.145 89.4 156.047 88.2107 155.189 87.7507L107.832 66.3973C104.7 64.9853 101.113 64.9853 97.98 66.3973L48.4533 88.7293C46.0013 89.6013 43.9867 91.4787 42.968 93.9973C41.0494 98.7467 43.352 104.172 48.1027 106.092L99.2027 126.739C99.804 126.999 100.439 127.197 101.092 127.325C101.133 127.333 101.173 127.34 101.215 127.348C101.439 127.389 101.665 127.423 101.892 127.447C101.959 127.455 102.025 127.463 102.092 127.468C102.36 127.491 102.631 127.507 102.904 127.507H102.905H102.907C104.1 127.507 105.271 127.279 106.385 126.829L153.196 107.923C155.465 107.007 155.857 106.187 155.857 104.139L139.404 110.779Z" fill="#3A3F4F"/>
<path d="M102.903 121.817C102.179 121.817 101.456 121.712 100.739 121.5C100.715 121.493 100.691 121.485 100.668 121.475L51.3946 101.536C50.9933 101.375 50.7986 100.916 50.9613 100.515C51.1239 100.112 51.5826 99.9187 51.9839 100.081L101.219 120.007C102.349 120.332 103.453 120.331 104.595 120.005L152.135 100.837C152.536 100.673 152.995 100.869 153.156 101.271C153.319 101.673 153.123 102.129 152.721 102.292L105.144 121.476C105.12 121.485 105.096 121.495 105.072 121.5C104.351 121.712 103.625 121.817 102.903 121.817Z" fill="#3A3F4F"/>
<path d="M102.903 116.348C102.179 116.348 101.456 116.243 100.739 116.031C100.715 116.025 100.691 116.016 100.668 116.007L51.3946 96.0666C50.9933 95.9053 50.7986 95.448 50.9613 95.0453C51.1239 94.6426 51.5826 94.4506 51.9839 94.612L101.219 114.536C102.351 114.863 103.455 114.864 104.595 114.536L152.135 95.3679C152.536 95.2039 152.995 95.3999 153.156 95.8013C153.319 96.2039 153.123 96.6613 152.721 96.8226L105.144 116.007C105.12 116.017 105.096 116.025 105.072 116.032C104.351 116.243 103.627 116.348 102.903 116.348Z" fill="#3A3F4F"/>
<path d="M99.0627 41.2413L60.2853 58.9466C59.3107 59.3933 59.3107 60.7786 60.2853 61.224L99.0627 78.9306C100.232 79.464 101.579 79.464 102.751 78.9306L141.527 61.224C142.501 60.7786 142.501 59.3933 141.527 58.9466L102.751 41.2413C101.579 40.7066 100.232 40.7066 99.0627 41.2413Z" fill="#3A3F4F"/>
<path d="M100.699 99.8867C83.6453 99.8867 70.7853 94.084 70.7853 86.388V66.2706L98.0906 78.74C98.9799 79.1453 99.928 79.352 100.905 79.352C101.885 79.352 102.833 79.1453 103.723 78.74L130.612 66.4613V86.388C130.612 94.084 117.752 99.8867 100.699 99.8867Z" fill="white"/>
<path d="M104.625 80.7173C103.451 81.2533 102.199 81.5267 100.907 81.5267C99.6146 81.5267 98.3626 81.2533 97.1866 80.7173L72.96 69.656V86.388C72.96 92.6427 85.38 97.712 100.699 97.712C116.017 97.712 128.436 92.6427 128.436 86.388V69.8453L104.625 80.7173Z" fill="#3A3F4F"/>
<path d="M46.4066 33.056C43.1453 35.8133 42.408 40.3053 42.408 40.3053C42.408 40.3053 46.9599 40.3253 50.2226 37.568C53.4839 34.8106 54.2199 30.32 54.2199 30.32C54.2199 30.32 49.6693 30.2986 46.4066 33.056Z" fill="#3A3F4F"/>
<path d="M64.6 139.869C67.1827 143.455 67.192 147.573 67.156 147.585C67.1627 147.637 61.516 145.828 59.1 141.889C56.68 138.001 58.076 134.117 58.0387 134.127C58.052 134.164 62.0173 136.317 64.6 139.869Z" fill="#3A3F4F"/>
<path d="M60.148 151.78C65.1894 151.119 67.2 147.401 67.1973 147.435C67.1387 147.451 61.8293 145.7 57.184 146.071C52.492 146.463 49.6373 149.261 49.6373 149.292C49.5693 149.304 55.052 152.461 60.148 151.78Z" fill="#3A3F4F"/>
<path d="M54.86 135.147C56.5827 139.036 55.7627 143.004 55.728 143.009C55.7294 143.064 50.808 140.384 49.2747 136.175C47.7334 132.013 49.796 128.491 49.7614 128.495C49.7694 128.535 53.1347 131.289 54.86 135.147Z" fill="#3A3F4F"/>
<path d="M48.3306 145.893C53.2 146.092 55.8026 142.84 55.7973 142.872C55.7426 142.879 51.1267 140.312 46.648 139.889C42.1227 139.48 38.8586 141.7 38.8533 141.731C38.7906 141.733 43.4093 145.704 48.3306 145.893Z" fill="#3A3F4F"/>
<path d="M46.532 128.941C47.4413 132.996 45.8893 136.688 45.8573 136.689C45.8533 136.741 41.68 133.323 40.9826 128.981C40.2733 124.687 42.9013 121.627 42.8693 121.624C42.8706 121.664 45.6186 124.917 46.532 128.941Z" fill="#3A3F4F"/>
<path d="M38.2519 138.224C42.8679 139.24 45.9586 136.536 45.9506 136.568C45.8999 136.565 42.0013 133.307 37.7666 132.129C33.4893 130.957 29.9226 132.545 29.916 132.575C29.8573 132.568 33.5866 137.209 38.2519 138.224Z" fill="#3A3F4F"/>
<path d="M39.6666 121.497C39.8093 125.589 37.628 128.899 37.5986 128.895C37.5893 128.945 34.188 124.913 34.2786 120.573C34.352 116.275 37.444 113.753 37.412 113.747C37.4066 113.787 39.5133 117.436 39.6666 121.497Z" fill="#3A3F4F"/>
<path d="M29.9707 129.072C34.252 130.853 37.724 128.763 37.7107 128.792C37.6654 128.781 34.5027 124.953 30.596 123.069C26.648 121.188 22.8934 122.108 22.8814 122.135C22.828 122.119 25.644 127.283 29.9707 129.072Z" fill="#3A3F4F"/>
<path d="M34.3133 113.061C33.7413 117.072 31.0306 119.907 31.0053 119.897C30.9893 119.945 28.3866 115.431 29.2133 111.211C30.0213 107.029 33.4653 105.109 33.4386 105.1C33.4279 105.137 34.8693 109.077 34.3133 113.061Z" fill="#3A3F4F"/>
<path d="M23.5466 118.736C27.4093 121.221 31.1479 119.791 31.1319 119.817C31.0906 119.801 28.6866 115.524 25.1879 112.996C21.6546 110.464 17.824 110.696 17.808 110.72C17.7586 110.696 19.6386 116.237 23.5466 118.736Z" fill="#3A3F4F"/>
<path d="M30.5227 103.879C29.288 107.7 26.156 109.985 26.1307 109.973C26.108 110.019 24.328 105.149 25.8414 101.159C27.332 97.2053 31.024 95.9333 30.9987 95.9173C30.9827 95.9547 31.7387 100.083 30.5227 103.879Z" fill="#3A3F4F"/>
<path d="M19.0319 107.516C22.3933 110.631 26.2866 109.893 26.2693 109.917C26.2319 109.895 24.6066 105.292 21.6039 102.191C18.5666 99.08 14.7759 98.6213 14.7573 98.6427C14.7146 98.6133 15.6306 104.381 19.0319 107.516Z" fill="#3A3F4F"/>
<path d="M28.3466 94.196C26.5012 97.732 23.0532 99.412 23.0306 99.396C23.0026 99.436 22.0679 94.3413 24.2185 90.6813C26.3359 87.0547 30.1652 86.4587 30.1426 86.44C30.1186 86.472 30.1692 90.6827 28.3466 94.196Z" fill="#3A3F4F"/>
<path d="M16.4907 95.716C19.2627 99.376 23.1987 99.344 23.1747 99.3666C23.1454 99.3386 22.3173 94.5306 19.8947 90.9386C17.4427 87.3306 13.8107 86.196 13.7867 86.2146C13.7493 86.1786 13.68 92.0306 16.4907 95.716Z" fill="#3A3F4F"/>
<path d="M27.836 84.264C25.4333 87.4253 21.7799 88.46 21.7599 88.44C21.7239 88.4773 21.6653 83.2853 24.3933 80.0453C27.0839 76.8333 30.9373 76.9253 30.9173 76.9026C30.8879 76.932 30.2093 81.12 27.836 84.264Z" fill="#3A3F4F"/>
<path d="M15.9773 83.6373C18.072 87.748 21.932 88.4187 21.9053 88.4373C21.88 88.4053 21.8746 83.5173 20.1186 79.5253C18.3373 75.5133 14.984 73.7347 14.9573 73.7493C14.9253 73.708 13.8453 79.496 15.9773 83.6373Z" fill="#3A3F4F"/>
<path d="M29.0413 74.328C26.1373 77.0387 22.3867 77.4067 22.372 77.384C22.3293 77.416 23.168 72.2573 26.4187 69.5173C29.6293 66.7973 33.392 67.572 33.3747 67.5467C33.3387 67.572 31.9093 71.632 29.0413 74.328Z" fill="#3A3F4F"/>
<path d="M17.5494 71.5826C18.8801 76.04 22.5454 77.3946 22.5147 77.408C22.4947 77.3733 23.332 72.5253 22.332 68.236C21.308 63.9226 18.3587 61.5493 18.328 61.5613C18.3 61.5146 16.1881 67.092 17.5494 71.5826Z" fill="#3A3F4F"/>
<path d="M32.0133 64.6413C28.668 66.8346 24.936 66.5306 24.9213 66.5053C24.872 66.5306 26.6333 61.536 30.352 59.364C34.0266 57.2067 37.5786 58.6386 37.5653 58.612C37.5213 58.6306 35.3213 62.4573 32.0133 64.6413Z" fill="#3A3F4F"/>
<path d="M21.268 59.8586C21.7427 64.544 25.092 66.5453 25.0573 66.5546C25.044 66.5173 26.7427 61.832 26.588 57.3573C26.412 52.8573 23.9907 49.956 23.956 49.9626C23.936 49.9133 20.764 55.1333 21.268 59.8586Z" fill="#3A3F4F"/>
<path d="M36.8054 55.4547C33.072 57.0734 29.4734 56.1067 29.464 56.0813C29.4067 56.1 32.1174 51.3987 36.2454 49.8533C40.3254 48.316 43.548 50.3667 43.5387 50.34C43.488 50.352 40.4934 53.8387 36.8054 55.4547Z" fill="#3A3F4F"/>
<path d="M27.188 48.768C26.7173 53.5573 29.6267 56.1507 29.5893 56.1547C29.5787 56.1147 32.164 51.716 32.9454 47.18C33.7107 42.6173 31.944 39.2693 31.9067 39.2706C31.8894 39.22 27.6347 43.936 27.188 48.768Z" fill="#3A3F4F"/>
<path d="M43.4666 47.0187C39.408 48.0187 36.0626 46.4187 36.0546 46.392C35.992 46.4013 39.672 42.1267 44.1533 41.256C48.5773 40.3867 51.3493 42.9987 51.3426 42.9693C51.2853 42.9747 47.476 46.0147 43.4666 47.0187Z" fill="#3A3F4F"/>
<path d="M35.3733 38.62C33.8613 43.376 36.204 46.4894 36.1626 46.4867C36.1586 46.4467 39.648 42.4534 41.4586 37.9934C43.2573 33.5 42.2746 29.8067 42.232 29.804C42.2226 29.7493 36.8613 33.8187 35.3733 38.62Z" fill="#3A3F4F"/>
<path d="M83.1626 149.451L83.1159 148.568C75.7906 148.953 68.5466 147.867 61.5812 145.339C54.7932 142.873 48.5639 139.152 43.0639 134.275C31.6519 124.157 24.5772 110.063 23.1412 94.5894C21.9666 81.92 23.2346 70.716 26.9106 61.2907C30.8586 51.168 37.5052 43.3814 46.6639 38.1467L46.2239 37.3774C36.8852 42.7174 30.1106 50.6547 26.0866 60.9694C22.3599 70.524 21.0732 81.864 22.2612 94.672C23.7172 110.369 30.8959 124.669 42.4772 134.937C48.0612 139.888 54.3866 143.668 61.2799 146.169C68.3559 148.74 75.7186 149.844 83.1626 149.451Z" fill="#3A3F4F"/>
<path d="M155.405 33.056C158.667 35.8133 159.403 40.3053 159.403 40.3053C159.403 40.3053 154.852 40.3253 151.591 37.568C148.328 34.8106 147.593 30.32 147.593 30.32C147.593 30.32 152.144 30.2986 155.405 33.056Z" fill="#3A3F4F"/>
<path d="M137.213 139.869C134.629 143.455 134.62 147.573 134.657 147.585C134.651 147.637 140.296 145.828 142.712 141.889C145.132 138.001 143.736 134.117 143.775 134.127C143.761 134.164 139.795 136.317 137.213 139.869Z" fill="#3A3F4F"/>
<path d="M141.665 151.78C136.623 151.119 134.613 147.401 134.616 147.435C134.673 147.451 139.983 145.7 144.628 146.071C149.321 146.463 152.173 149.261 152.175 149.292C152.241 149.304 146.761 152.461 141.665 151.78Z" fill="#3A3F4F"/>
<path d="M146.952 135.147C145.229 139.036 146.051 143.004 146.085 143.009C146.083 143.064 151.005 140.384 152.539 136.175C154.079 132.013 152.016 128.491 152.052 128.495C152.044 128.535 148.676 131.289 146.952 135.147Z" fill="#3A3F4F"/>
<path d="M153.483 145.893C148.613 146.092 146.009 142.84 146.015 142.872C146.069 142.879 150.684 140.312 155.165 139.889C159.689 139.48 162.952 141.7 162.959 141.731C163.021 141.733 158.403 145.704 153.483 145.893Z" fill="#3A3F4F"/>
<path d="M155.281 128.941C154.372 132.996 155.923 136.688 155.955 136.689C155.959 136.741 160.132 133.323 160.831 128.981C161.539 124.687 158.909 121.627 158.944 121.624C158.943 121.664 156.195 124.917 155.281 128.941Z" fill="#3A3F4F"/>
<path d="M163.561 138.224C158.944 139.24 155.853 136.536 155.861 136.568C155.912 136.565 159.812 133.307 164.045 132.129C168.324 130.957 171.889 132.545 171.896 132.575C171.955 132.568 168.227 137.209 163.561 138.224Z" fill="#3A3F4F"/>
<path d="M162.145 121.497C162.003 125.589 164.184 128.899 164.215 128.895C164.224 128.945 167.624 124.913 167.535 120.573C167.46 116.275 164.369 113.753 164.4 113.747C164.404 113.787 162.299 117.436 162.145 121.497Z" fill="#3A3F4F"/>
<path d="M171.84 129.072C167.56 130.853 164.089 128.763 164.103 128.792C164.148 128.781 167.311 124.953 171.217 123.069C175.164 121.188 178.92 122.108 178.932 122.135C178.985 122.119 176.169 127.283 171.84 129.072Z" fill="#3A3F4F"/>
<path d="M167.5 113.061C168.071 117.072 170.781 119.907 170.808 119.897C170.823 119.945 173.427 115.431 172.6 111.211C171.791 107.029 168.345 105.109 168.373 105.1C168.385 105.137 166.943 109.077 167.5 113.061Z" fill="#3A3F4F"/>
<path d="M178.267 118.736C174.403 121.221 170.665 119.791 170.68 119.817C170.721 119.801 173.125 115.524 176.624 112.996C180.157 110.464 183.989 110.696 184.005 110.72C184.053 110.696 182.173 116.237 178.267 118.736Z" fill="#3A3F4F"/>
<path d="M171.289 103.879C172.524 107.7 175.657 109.985 175.681 109.973C175.705 110.019 177.485 105.149 175.969 101.159C174.481 97.2053 170.788 95.9333 170.815 95.9173C170.831 95.9547 170.073 100.083 171.289 103.879Z" fill="#3A3F4F"/>
<path d="M182.78 107.516C179.42 110.631 175.524 109.893 175.544 109.917C175.58 109.895 177.207 105.292 180.209 102.191C183.244 99.08 187.037 98.6213 187.056 98.6427C187.099 98.6133 186.18 104.381 182.78 107.516Z" fill="#3A3F4F"/>
<path d="M173.465 94.196C175.312 97.732 178.76 99.412 178.783 99.396C178.811 99.436 179.743 94.3413 177.595 90.6813C175.477 87.0547 171.648 86.4587 171.671 86.44C171.695 86.472 171.644 90.6827 173.465 94.196Z" fill="#3A3F4F"/>
<path d="M185.323 95.716C182.551 99.376 178.615 99.344 178.637 99.3666C178.668 99.3386 179.496 94.5306 181.917 90.9386C184.371 87.3306 188.003 86.196 188.025 86.2146C188.063 86.1786 188.132 92.0306 185.323 95.716Z" fill="#3A3F4F"/>
<path d="M173.977 84.264C176.38 87.4253 180.033 88.46 180.053 88.44C180.089 88.4773 180.148 83.2853 177.42 80.0453C174.729 76.8333 170.876 76.9253 170.896 76.9026C170.925 76.932 171.604 81.12 173.977 84.264Z" fill="#3A3F4F"/>
<path d="M185.836 83.6373C183.74 87.748 179.88 88.4187 179.907 88.4373C179.933 88.4053 179.937 83.5173 181.693 79.5253C183.476 75.5133 186.829 73.7347 186.855 73.7493C186.888 73.708 187.967 79.496 185.836 83.6373Z" fill="#3A3F4F"/>
<path d="M172.772 74.328C175.675 77.0387 179.425 77.4067 179.441 77.384C179.484 77.416 178.645 72.2573 175.395 69.5173C172.181 66.7973 168.421 67.572 168.437 67.5467C168.473 67.572 169.903 71.632 172.772 74.328Z" fill="#3A3F4F"/>
<path d="M184.263 71.5826C182.933 76.04 179.268 77.3946 179.297 77.408C179.317 77.3733 178.481 72.5253 179.481 68.236C180.505 63.9226 183.453 61.5493 183.485 61.5613C183.512 61.5146 185.624 67.092 184.263 71.5826Z" fill="#3A3F4F"/>
<path d="M169.799 64.6413C173.145 66.8346 176.877 66.5306 176.892 66.5053C176.941 66.5306 175.179 61.536 171.46 59.364C167.785 57.2067 164.233 58.6386 164.247 58.612C164.291 58.6306 166.492 62.4573 169.799 64.6413Z" fill="#3A3F4F"/>
<path d="M180.545 59.8586C180.069 64.544 176.721 66.5453 176.755 66.5546C176.769 66.5173 175.069 61.832 175.225 57.3573C175.399 52.8573 177.823 49.956 177.855 49.9626C177.877 49.9133 181.049 55.1333 180.545 59.8586Z" fill="#3A3F4F"/>
<path d="M165.007 55.4547C168.739 57.0734 172.339 56.1067 172.348 56.0813C172.404 56.1 169.696 51.3987 165.567 49.8533C161.488 48.316 158.264 50.3667 158.275 50.34C158.325 50.352 161.32 53.8387 165.007 55.4547Z" fill="#3A3F4F"/>
<path d="M174.623 48.768C175.096 53.5573 172.185 56.1507 172.224 56.1547C172.233 56.1147 169.649 51.716 168.868 47.18C168.103 42.6173 169.869 39.2693 169.905 39.2706C169.924 39.22 174.177 43.936 174.623 48.768Z" fill="#3A3F4F"/>
<path d="M158.345 47.0187C162.403 48.0187 165.751 46.4187 165.757 46.392C165.821 46.4013 162.14 42.1267 157.66 41.256C153.235 40.3867 150.463 42.9987 150.469 42.9693C150.527 42.9747 154.337 46.0147 158.345 47.0187Z" fill="#3A3F4F"/>
<path d="M166.44 38.62C167.952 43.376 165.608 46.4894 165.651 46.4867C165.653 46.4467 162.165 42.4534 160.353 37.9934C158.556 33.5 159.537 29.8067 159.58 29.804C159.591 29.7493 164.951 33.8187 166.44 38.62Z" fill="#3A3F4F"/>
<path d="M118.651 149.451L118.697 148.568C126.021 148.953 133.265 147.867 140.231 145.339C147.019 142.873 153.248 139.152 158.748 134.275C170.16 124.157 177.235 110.063 178.671 94.5894C179.845 81.92 178.576 70.716 174.9 61.2907C170.953 51.168 164.307 43.3814 155.149 38.1467L155.589 37.3774C164.928 42.7174 171.703 50.6547 175.727 60.9694C179.452 70.524 180.739 81.864 179.552 94.672C178.096 110.369 170.916 124.669 159.335 134.937C153.752 139.888 147.427 143.668 140.533 146.169C133.455 148.74 126.093 149.844 118.651 149.451Z" fill="#3A3F4F"/>
<path d="M101.865 1.50676e-05L105.628 7.62664L114.047 8.85067L107.956 14.7867L109.395 23.1707L101.865 19.212L94.3359 23.1707L95.7733 14.7867L89.6826 8.85067L98.0999 7.62664L101.865 1.50676e-05Z" fill="#3A3F4F"/>
<path d="M72.872 14.1987L75.6519 19.8334L81.8706 20.7361L77.3706 25.1227L78.4319 31.3147L72.872 28.392L67.3106 31.3147L68.3733 25.1227L63.8733 20.7361L70.0906 19.8334L72.872 14.1987Z" fill="#3A3F4F"/>
<path d="M130.857 14.1987L133.639 19.8334L139.856 20.7361L135.356 25.1227L136.419 31.3147L130.857 28.392L125.296 31.3147L126.357 25.1227L121.859 20.7361L128.076 19.8334L130.857 14.1987Z" fill="#3A3F4F"/>
<path d="M88.5394 142.936H91.9048V144.194H88.5394V142.936ZM88.6593 145.812H92.464V147.11H87.0515V140.12H92.3342V141.418H88.6593V145.812ZM96.048 147.23C95.4888 147.23 94.9528 147.156 94.4402 147.01C93.9276 146.857 93.5148 146.66 93.2019 146.421L93.7512 145.203C94.0508 145.416 94.4036 145.592 94.8097 145.732C95.2225 145.865 95.6386 145.932 96.058 145.932C96.3775 145.932 96.6338 145.902 96.8269 145.842C97.0266 145.775 97.1731 145.685 97.2663 145.572C97.3595 145.459 97.4061 145.329 97.4061 145.183C97.4061 144.996 97.3329 144.85 97.1864 144.743C97.0399 144.63 96.8469 144.54 96.6072 144.474C96.3675 144.4 96.1012 144.334 95.8083 144.274C95.522 144.207 95.2325 144.127 94.9395 144.034C94.6533 143.941 94.3903 143.821 94.1506 143.675C93.911 143.528 93.7146 143.335 93.5614 143.095C93.415 142.856 93.3417 142.55 93.3417 142.177C93.3417 141.777 93.4483 141.414 93.6613 141.088C93.881 140.755 94.2072 140.492 94.6399 140.299C95.0793 140.1 95.6286 140 96.2877 140C96.727 140 97.1598 140.053 97.5858 140.16C98.0119 140.259 98.3881 140.413 98.7143 140.619L98.215 141.847C97.8888 141.661 97.5625 141.524 97.2363 141.438C96.9101 141.345 96.5906 141.298 96.2777 141.298C95.9648 141.298 95.7085 141.335 95.5087 141.408C95.309 141.481 95.1659 141.578 95.0793 141.697C94.9928 141.811 94.9495 141.944 94.9495 142.097C94.9495 142.277 95.0227 142.423 95.1692 142.536C95.3157 142.643 95.5087 142.729 95.7484 142.796C95.9881 142.862 96.251 142.929 96.5373 142.996C96.8302 143.062 97.1198 143.139 97.4061 143.225C97.699 143.312 97.9653 143.428 98.205 143.575C98.4447 143.721 98.6377 143.914 98.7842 144.154C98.9373 144.394 99.0139 144.697 99.0139 145.063C99.0139 145.455 98.904 145.815 98.6843 146.141C98.4646 146.467 98.1351 146.73 97.6957 146.93C97.263 147.13 96.7137 147.23 96.048 147.23ZM101.47 147.11V141.438H99.2329V140.12H105.324V141.438H103.087V147.11H101.47ZM106.195 147.11V140.12H109.37C110.129 140.12 110.798 140.266 111.378 140.559C111.957 140.845 112.41 141.248 112.736 141.767C113.062 142.287 113.225 142.902 113.225 143.615C113.225 144.32 113.062 144.936 112.736 145.462C112.41 145.981 111.957 146.388 111.378 146.68C110.798 146.967 110.129 147.11 109.37 147.11H106.195ZM107.813 145.782H109.291C109.757 145.782 110.159 145.695 110.499 145.522C110.845 145.342 111.111 145.089 111.298 144.763C111.491 144.437 111.587 144.054 111.587 143.615C111.587 143.169 111.491 142.786 111.298 142.466C111.111 142.14 110.845 141.89 110.499 141.717C110.159 141.538 109.757 141.448 109.291 141.448H107.813V145.782ZM114.729 147.19C114.463 147.19 114.233 147.1 114.04 146.92C113.854 146.734 113.761 146.497 113.761 146.211C113.761 145.925 113.854 145.695 114.04 145.522C114.233 145.342 114.463 145.252 114.729 145.252C115.002 145.252 115.232 145.342 115.418 145.522C115.605 145.695 115.698 145.925 115.698 146.211C115.698 146.497 115.605 146.734 115.418 146.92C115.232 147.1 115.002 147.19 114.729 147.19Z" fill="#3A3F4F"/>
<path d="M89.761 156.497V155.535L92.2347 153.198C92.4301 153.021 92.5737 152.862 92.6653 152.722C92.7569 152.581 92.818 152.453 92.8485 152.337C92.8852 152.221 92.9035 152.114 92.9035 152.016C92.9035 151.76 92.8149 151.564 92.6378 151.43C92.4668 151.289 92.2133 151.219 91.8774 151.219C91.6086 151.219 91.3582 151.271 91.1261 151.375C90.9001 151.479 90.7077 151.641 90.5489 151.861L89.4678 151.164C89.7121 150.798 90.0541 150.508 90.4939 150.294C90.9337 150.08 91.4406 149.973 92.0148 149.973C92.4912 149.973 92.9066 150.053 93.2608 150.211C93.6212 150.364 93.8991 150.581 94.0946 150.862C94.2961 151.143 94.3969 151.479 94.3969 151.87C94.3969 152.077 94.3694 152.285 94.3144 152.493C94.2656 152.694 94.1617 152.908 94.0029 153.134C93.8502 153.36 93.6242 153.614 93.325 153.895L91.2727 155.828L90.9887 155.287H94.6076V156.497H89.761ZM97.9686 156.606C97.4433 156.606 96.973 156.478 96.5577 156.222C96.1423 155.959 95.8156 155.58 95.5774 155.086C95.3391 154.591 95.22 153.992 95.22 153.29C95.22 152.587 95.3391 151.989 95.5774 151.494C95.8156 150.999 96.1423 150.624 96.5577 150.367C96.973 150.105 97.4433 149.973 97.9686 149.973C98.5 149.973 98.9703 150.105 99.3796 150.367C99.7949 150.624 100.122 150.999 100.36 151.494C100.598 151.989 100.717 152.587 100.717 153.29C100.717 153.992 100.598 154.591 100.36 155.086C100.122 155.58 99.7949 155.959 99.3796 156.222C98.9703 156.478 98.5 156.606 97.9686 156.606ZM97.9686 155.351C98.219 155.351 98.4359 155.281 98.6191 155.141C98.8085 155 98.9551 154.777 99.0589 154.472C99.1688 154.166 99.2238 153.772 99.2238 153.29C99.2238 152.807 99.1688 152.413 99.0589 152.108C98.9551 151.803 98.8085 151.58 98.6191 151.439C98.4359 151.299 98.219 151.228 97.9686 151.228C97.7243 151.228 97.5075 151.299 97.3181 151.439C97.1349 151.58 96.9883 151.803 96.8784 152.108C96.7745 152.413 96.7226 152.807 96.7226 153.29C96.7226 153.772 96.7745 154.166 96.8784 154.472C96.9883 154.777 97.1349 155 97.3181 155.141C97.5075 155.281 97.7243 155.351 97.9686 155.351ZM101.348 156.497V155.535L103.821 153.198C104.017 153.021 104.16 152.862 104.252 152.722C104.344 152.581 104.405 152.453 104.435 152.337C104.472 152.221 104.49 152.114 104.49 152.016C104.49 151.76 104.402 151.564 104.224 151.43C104.053 151.289 103.8 151.219 103.464 151.219C103.195 151.219 102.945 151.271 102.713 151.375C102.487 151.479 102.294 151.641 102.136 151.861L101.054 151.164C101.299 150.798 101.641 150.508 102.081 150.294C102.52 150.08 103.027 149.973 103.601 149.973C104.078 149.973 104.493 150.053 104.847 150.211C105.208 150.364 105.486 150.581 105.681 150.862C105.883 151.143 105.984 151.479 105.984 151.87C105.984 152.077 105.956 152.285 105.901 152.493C105.852 152.694 105.748 152.908 105.59 153.134C105.437 153.36 105.211 153.614 104.912 153.895L102.859 155.828L102.575 155.287H106.194V156.497H101.348ZM108.886 156.606C108.441 156.606 107.998 156.548 107.558 156.432C107.118 156.31 106.746 156.139 106.44 155.919L107.017 154.783C107.262 154.96 107.546 155.101 107.869 155.205C108.193 155.309 108.52 155.36 108.85 155.36C109.222 155.36 109.516 155.287 109.729 155.141C109.943 154.994 110.05 154.792 110.05 154.536C110.05 154.292 109.955 154.099 109.766 153.959C109.577 153.818 109.271 153.748 108.85 153.748H108.172V152.768L109.958 150.743L110.123 151.274H106.761V150.083H111.25V151.045L109.473 153.07L108.722 152.639H109.152C109.94 152.639 110.536 152.816 110.939 153.171C111.342 153.525 111.543 153.98 111.543 154.536C111.543 154.896 111.449 155.235 111.259 155.553C111.07 155.864 110.78 156.118 110.389 156.313C109.998 156.509 109.497 156.606 108.886 156.606Z" fill="#3A3F4F"/>
</svg>
