<svg width="173" height="173" viewBox="0 0 173 173" fill="none" xmlns="http://www.w3.org/2000/svg">
<path d="M172.701 86.3506C172.701 134.04 134.041 172.701 86.3505 172.701C38.6604 172.701 0 134.04 0 86.3506C0 38.66 38.6604 2.15578e-06 86.3505 2.15578e-06C134.041 2.15578e-06 172.701 38.66 172.701 86.3506Z" fill="#BCC3E5"/>
<path d="M119.942 72.2066C119.942 96.1893 104.902 115.631 86.3505 115.631C67.7989 115.631 52.7593 96.1893 52.7593 72.2066C52.7593 48.224 67.7989 28.7826 86.3505 28.7826C104.902 28.7826 119.942 48.224 119.942 72.2066Z" fill="white"/>
<path d="M86.3505 118.856C58.2525 118.856 33.5202 127.443 19.0754 140.46C34.903 160.113 59.151 172.701 86.3505 172.701C113.551 172.701 137.798 160.113 153.626 140.46C139.181 127.443 114.449 118.856 86.3505 118.856Z" fill="white"/>
<path d="M90.1012 141.188H82.5999C75.5425 141.188 69.7672 135.413 69.7672 128.355V99.184C69.7672 92.1253 75.5425 86.3507 82.5999 86.3507H90.1012C97.1599 86.3507 102.935 92.1253 102.935 99.184V128.355C102.935 135.413 97.1599 141.188 90.1012 141.188Z" fill="white"/>
<path d="M57.3979 74.2213C59.3531 79.8519 58.5771 85.2373 55.6645 86.2493C52.7516 87.2613 48.8052 83.5159 46.8495 77.8839C44.8943 72.2519 45.6697 66.8679 48.5828 65.8559C51.4959 64.8453 55.4421 68.5906 57.3979 74.2213Z" fill="white"/>
<path d="M115.304 74.2213C113.348 79.8519 114.124 85.2373 117.037 86.2493C119.949 87.2613 123.896 83.5159 125.852 77.8839C127.808 72.2519 127.032 66.8679 124.119 65.8559C121.205 64.8453 117.26 68.5906 115.304 74.2213Z" fill="white"/>
<path d="M56.9526 74.0386C52.587 66.1 48.0963 57.6747 48.3203 48.6173C48.5443 39.5587 55.4402 29.9987 64.4948 30.328C66.0744 30.3853 67.6583 30.732 69.2235 30.5093C72.3546 30.064 74.6746 27.504 77.2159 25.6186C82.9452 21.3693 90.9226 20.3613 97.5292 23.052C101.612 24.7146 105.068 27.624 109.049 29.516C116.468 33.0413 125.611 32.6706 132.72 28.5573C131.237 31.348 128.728 33.576 125.781 34.7186C128.499 35.5853 131.508 35.5013 134.172 34.4853C132.565 37.3946 129.909 39.708 126.808 40.9C129.107 41.0587 131.405 41.2173 133.705 41.376C131.744 44.1533 128.941 46.328 125.764 47.54C127.565 47.5986 129.368 47.6573 131.169 47.7146C129.827 51.6906 126.348 54.8706 122.269 55.852C123.431 55.8693 124.592 55.884 125.755 55.9C121.948 61.392 118.141 66.884 114.335 72.376C113.248 73.9453 112.117 75.556 110.511 76.5867C109.175 77.4427 107.603 77.836 106.056 78.1826C94.7812 80.7106 83.1119 81.4707 71.6052 80.4253C67.6687 80.068 63.552 79.42 60.4244 77.004C57.2968 74.5866 55.6208 69.8626 57.7739 66.548" fill="white"/>
<path d="M64.6959 127.06C64.9432 122.504 65.5115 117.964 66.3937 113.487C68.6463 116.063 72.4692 116.385 75.8892 116.525C81.0652 116.735 86.2399 116.945 91.4159 117.156C92.0199 120.687 92.4385 124.839 89.8878 127.353C88.7038 128.52 87.0718 129.097 85.4718 129.543C81.9825 130.513 78.3652 131.019 74.7452 131.041C70.4489 131.069 65.3296 129.781 63.9547 125.712C64.4208 125.329 64.8869 124.945 65.353 124.563" fill="white"/>
<path d="M108.005 127.06C107.759 122.504 107.191 117.964 106.308 113.487C104.055 116.063 100.232 116.385 96.8119 116.525C91.6372 116.735 86.4612 116.945 81.2852 117.156C80.6812 120.687 80.2625 124.839 82.8132 127.353C83.9972 128.52 85.6292 129.097 87.2305 129.543C90.7185 130.513 94.3358 131.019 97.9558 131.041C102.252 131.069 107.372 129.781 108.747 125.712C108.281 125.329 107.815 124.945 107.348 124.563" fill="white"/>
</svg>
